<?xml version="1.0" standalone="no"?>
<!DOCTYPE svg PUBLIC "-//W3C//DTD SVG 20010904//EN"
 "http://www.w3.org/TR/2001/REC-SVG-20010904/DTD/svg10.dtd">
<svg version="1.0" xmlns="http://www.w3.org/2000/svg"
 width="1027.000000pt" height="636.000000pt" viewBox="-50 50 1127.000000 636.000000"
 preserveAspectRatio="xMidYMid meet">

<g transform="translate(0.000000,636.000000) scale(0.100000,-0.100000)"
fill="darkred" stroke="none">
<path d="M4813 6183 c-38 -93 -195 -473 -349 -845 -153 -373 -281 -678 -284
-678 -3 0 -257 216 -565 480 -308 264 -566 480 -573 480 -7 0 -15 -6 -18 -14
-3 -8 72 -312 166 -676 95 -364 170 -663 168 -665 -1 -2 -325 100 -718 226
-393 126 -721 227 -728 224 -6 -2 -12 -10 -12 -17 0 -9 982 -1110 1088 -1220
4 -4 13 -4 20 1 10 6 -18 85 -118 330 -72 178 -130 325 -127 327 2 2 230 -68
507 -156 277 -88 506 -157 509 -155 2 3 -53 226 -123 496 -70 270 -126 493
-124 494 2 2 174 -142 383 -320 208 -179 382 -322 386 -317 4 4 82 189 174
412 276 668 285 689 300 684 8 -3 18 -34 24 -72 35 -217 77 -479 126 -791 30
-195 57 -356 58 -357 1 -1 144 71 317 160 173 90 316 162 317 161 2 -1 -15
-131 -37 -290 -22 -159 -37 -291 -35 -294 3 -2 107 6 231 18 124 13 227 21
229 19 2 -2 -48 -118 -111 -258 -62 -140 -114 -261 -114 -267 0 -7 6 -13 13
-13 18 0 1021 895 1025 915 2 8 -2 17 -10 20 -7 3 -215 -19 -463 -48 -247 -30
-451 -53 -452 -52 -1 0 24 178 57 395 33 216 58 395 57 397 -2 2 -180 -90
-396 -203 -215 -114 -395 -204 -398 -201 -3 4 -68 404 -144 889 -166 1061
-146 948 -168 948 -14 0 -34 -37 -88 -167z"/>
<path d="M4475 3699 c-71 -44 -131 -82 -132 -86 -2 -12 262 -249 273 -244 8 3
117 342 111 347 -1 1 -29 15 -62 31 l-60 30 -130 -78z"/>
<path d="M7830 3715 c-679 -84 -1375 -298 -2031 -625 -81 -40 -161 -88 -182
-108 -53 -51 -77 -102 -211 -452 -171 -445 -155 -417 -311 -523 -144 -96 -170
-122 -218 -214 -17 -35 -35 -63 -38 -63 -3 0 -65 23 -137 50 -182 69 -233 67
-272 -10 -25 -48 -72 -74 -172 -95 -114 -24 -122 -32 -184 -174 -90 -206 -107
-270 -108 -391 -1 -136 22 -204 115 -346 97 -147 124 -197 154 -288 39 -117
36 -249 -10 -358 -7 -17 2 -18 108 -18 111 0 122 2 279 51 90 28 164 52 166
54 1 1 -16 41 -38 88 -62 132 -83 230 -78 352 5 100 34 202 73 258 15 21 15
21 8 -13 -5 -19 -8 -105 -8 -190 1 -143 3 -161 29 -235 36 -106 103 -212 188
-296 54 -54 75 -69 98 -69 28 0 30 -2 30 -40 l0 -40 93 6 c329 19 403 26 425
40 53 35 175 161 218 225 116 175 149 415 87 642 -3 11 1 17 14 17 15 0 26
-31 67 -183 27 -100 51 -185 55 -189 3 -4 542 150 1196 343 655 192 1206 354
1226 359 l37 10 -43 108 c-52 127 -75 233 -75 339 1 95 12 149 50 228 27 56
146 202 157 191 2 -2 -9 -30 -25 -62 -150 -300 -114 -593 101 -822 105 -112
235 -172 371 -172 95 0 171 20 285 76 158 78 272 208 332 381 21 62 48 219 50
293 1 36 6 23 25 -69 13 -63 25 -116 27 -117 8 -8 376 109 421 134 76 41 91
69 90 160 -1 81 -53 342 -78 390 -21 40 -56 55 -114 50 l-49 -5 -48 161 c-125
424 -150 477 -243 523 -56 27 -60 28 -217 26 -88 -1 -246 -9 -352 -17 -239
-20 -296 -20 -360 -1 -72 21 -129 77 -281 272 -187 241 -253 302 -375 342 -84
28 -180 33 -317 16z m19 -322 c36 -20 81 -47 98 -61 41 -31 143 -151 267 -315
85 -112 96 -132 96 -168 0 -51 -13 -75 -49 -94 -63 -32 -991 -305 -1038 -305
-13 0 -40 16 -62 35 -36 33 -42 47 -90 212 -29 98 -70 240 -92 315 -46 155
-47 201 -9 230 16 11 160 48 400 102 206 46 384 85 394 85 11 1 49 -15 85 -36z
m-1142 -278 c15 -10 37 -64 76 -187 73 -228 147 -471 147 -484 0 -6 -22 -34
-48 -61 -45 -47 -54 -52 -139 -72 -121 -28 -139 -27 -203 14 -106 68 -172 59
-251 -38 -106 -130 -216 -193 -439 -252 -74 -20 -172 -47 -216 -61 -95 -28
-127 -30 -148 -8 -28 28 -17 72 65 267 139 328 249 546 297 589 65 59 165 102
517 228 105 37 197 70 205 73 32 11 116 7 137 -8z m2478 -1079 c102 -48 159
-142 159 -261 0 -116 -57 -216 -152 -268 -66 -36 -125 -43 -193 -23 -114 33
-180 126 -187 262 -4 72 -1 89 20 135 69 148 224 216 353 155z m-3739 -1084
c45 -23 104 -83 130 -134 11 -21 19 -64 22 -120 4 -76 1 -92 -21 -140 -84
-186 -303 -229 -432 -86 -59 64 -79 120 -79 213 0 64 5 90 24 130 31 63 98
129 153 149 55 21 150 15 203 -12z"/>
<path d="M876 3428 c-64 -17 -104 -69 -185 -243 -41 -87 -89 -198 -107 -247
-39 -108 -75 -162 -128 -193 -60 -34 -98 -39 -201 -24 -106 14 -142 6 -175
-41 -25 -35 -72 -215 -64 -246 9 -36 45 -59 145 -95 49 -18 92 -36 95 -40 2
-5 -13 -136 -35 -291 -56 -389 -69 -545 -81 -968 -7 -201 -14 -411 -17 -468
-8 -146 -14 -141 212 -167 66 -7 183 -21 260 -30 245 -30 271 -11 314 239 16
87 18 91 41 90 109 -5 1920 -230 1920 -239 0 -5 -33 -102 -74 -215 -60 -166
-71 -207 -60 -213 31 -18 186 -27 527 -34 l357 -6 0 36 0 37 -45 0 c-25 0 -45
3 -45 8 1 11 46 163 60 197 6 16 23 45 36 63 42 54 83 153 95 230 15 93 1 198
-48 365 -26 89 -36 141 -36 192 0 79 12 110 79 195 58 74 85 140 134 321 42
153 80 244 129 309 34 44 79 263 59 287 -20 24 -60 40 -120 47 -72 9 -117 39
-145 96 -23 46 -69 294 -93 498 -22 183 -60 226 -246 272 -441 110 -1067 213
-1544 255 -393 34 -926 46 -1014 23z m649 -348 c448 -24 859 -72 1285 -151
260 -49 467 -96 494 -114 50 -33 63 -71 90 -265 36 -258 67 -512 64 -516 -5
-4 -133 32 -156 45 -12 6 -45 35 -75 65 -41 41 -67 58 -107 70 -66 20 -85 20
-183 1 -113 -21 -334 -19 -524 5 -87 12 -189 25 -228 30 -38 5 -387 32 -775
61 -388 29 -709 56 -714 60 -8 7 83 214 236 531 65 135 86 169 107 177 35 13
253 13 486 1z m-608 -1115 c70 -21 127 -66 162 -127 37 -65 46 -115 31 -178
-56 -233 -350 -292 -489 -99 -122 168 7 413 220 418 14 1 48 -6 76 -14z m2347
-276 c52 -14 121 -80 143 -137 27 -71 24 -212 -6 -275 -50 -103 -150 -140
-277 -102 -106 31 -174 121 -182 239 -4 66 -1 76 30 136 60 116 176 171 292
139z"/>
<path d="M4045 3295 c-50 -34 -124 -74 -165 -90 -41 -16 -85 -39 -97 -52 -22
-21 -23 -25 -9 -51 8 -16 32 -44 52 -62 37 -32 39 -32 106 -26 129 12 195 59
218 155 12 51 6 177 -8 184 -4 2 -48 -24 -97 -58z"/>
<path d="M4348 3041 c-43 -75 -38 -96 34 -150 15 -11 23 -3 68 64 28 42 50 78
48 80 -4 4 -116 55 -121 55 -1 0 -14 -22 -29 -49z"/>
<path d="M4762 2839 c-56 -117 -77 -171 -69 -175 7 -2 91 -3 187 -2 l175 3 14
65 14 65 -74 68 c-41 37 -95 86 -120 107 l-46 39 -81 -170z"/>
<path d="M4173 2753 c3 -15 20 -109 38 -208 18 -99 34 -181 35 -183 2 -3 206
36 210 41 7 6 -35 156 -56 205 -35 78 -71 109 -180 152 l-52 21 5 -28z"/>
<path d="M4638 2259 c-39 -9 -158 -65 -158 -74 0 -3 33 -26 73 -52 39 -26 111
-84 159 -130 47 -46 95 -83 106 -83 22 0 43 21 66 67 23 45 20 71 -14 141 -36
70 -84 117 -137 131 -43 12 -44 12 -95 0z"/>
</g>
</svg>
