<?xml version="1.0" encoding="utf-8"?>
<!-- Generator: Adobe Illustrator 21.1.0, SVG Export Plug-In . SVG Version: 6.00 Build 0)  -->
<svg version="1.1" id="Layer_1" xmlns="http://www.w3.org/2000/svg" xmlns:xlink="http://www.w3.org/1999/xlink" x="0px" y="0px"
	 width="418px" height="76px" viewBox="0 0 418 76" style="enable-background:new 0 0 418 76;" xml:space="preserve">
<style type="text/css">
	.st0{fill: hsl(220, 100%, 95%);}
	.st1{fill: hsl(220, 100%, 80%);}
</style>
<g>
	<g>
		<path class="st0" d="M23.4,4.8v9.8h-6.6v40.1H7V14.7H0.5V4.8H23.4z"/>
		<path class="st0" d="M61.6,54.7H49.1l-3.9-4.9c-1.2,0.8-2.5,1.6-3.9,2.1l-3.8-9c6-2.5,8.9-8,8.9-13.5c0-5.8-3.3-11.6-9.8-13.9
			v39.2h-9.8V4.8h4.9c15.1,0,24.5,12.4,24.5,24.7c0,4.5-1.3,9.2-4.1,13.3L61.6,54.7z"/>
		<path class="st0" d="M88.9,54.7v-8.9H74.7v8.9H65V32.3C65,17.3,77.4,4.9,92.3,4.9l6.4,0.5v49.3H88.9z M88.9,15.1
			c-8.2,1.5-14.2,8.9-14.2,17.2V36h14.2V15.1z"/>
		<path class="st0" d="M111.8,14.7v2.1h4.3v9.8h-4.3v28H102V4.9h16.7v9.8H111.8z"/>
		<path class="st0" d="M131.8,14.7v2.1h4.3v9.8h-4.3v28H122V4.9h16.7v9.8H131.8z"/>
		<path class="st0" d="M142,54.7V4.9h9.8v49.8H142z"/>
		<path class="st0" d="M181.4,56c-14.4,0-26.3-11.8-26.3-26.2c0-14.4,11.9-26.3,26.3-26.3c5.2,0,10,1.5,14.4,4.3l-5.4,8.2
			c-2.7-1.9-5.8-2.7-9-2.7c-9,0-16.4,7.4-16.4,16.4c0,9.1,7.4,16.5,16.4,16.5c3.4,0,6.6-1,9.3-3l5.6,8C192,54.4,186.8,56,181.4,56z"
			/>
		<path class="st0" d="M239.3,54.7v-23c0-7.8-5.4-14.6-12.9-16.5v39.5h-9.8V19.1c-2-1.9-4.5-3.3-7.2-3.9v39.5h-9.8V4.9h2
			c5.1,0,9.8,0.1,15.1,2.5V4.9h5.6c14.6,0,26.8,12.2,26.8,26.8v23H239.3z"/>
		<path class="st0" d="M271.5,54.8c-10.5,0-19-8.7-19-19c0-6.8,3.6-12.7,8.9-16.1c-0.5-1.3-0.8-2.5-0.8-3.9
			c0-5.9,4.9-10.9,10.9-10.9h5.4v9.8h-5.4c-0.8,0-1.1,0.5-1.1,1.1s0.4,1,1.1,1h5.4v9.8h-6.6c-4.5,0.5-8.1,4.5-8.1,9.1
			c0,5,4.2,9.2,9.3,9.2h5.4v9.8H271.5z"/>
		<path class="st0" d="M280.2,54.7V4.9h9.8v49.8H280.2z"/>
		<path class="st0" d="M304,19.2c0,3.3,1.5,6.5,3.2,9.6c0.9,1.6,3.4,7.6,3.4,11.7c0,7.9-4.7,15.6-12.2,19.2l-4.2-8.7
			c4.1-2,6.6-6.2,6.6-10.5c0-1.6-0.4-3.2-4.5-12c-1.4-3-2.1-5.8-2.1-9.1c0-7.9,4.6-15.5,12.2-19.2l4.2,8.9
			C306.7,10.9,304,14.7,304,19.2z"/>
		<path class="st0" d="M336.8,4.8v9.8h-6.6v40.1h-9.8V14.7h-6.5V4.8H336.8z"/>
		<path class="st0" d="M354.3,54.8c-10.5,0-19-8.7-19-19c0-6.8,3.6-12.7,8.9-16.1c-0.5-1.3-0.8-2.5-0.8-3.9
			c0-5.9,4.9-10.9,10.9-10.9h5.4v9.8h-5.4c-0.8,0-1.1,0.5-1.1,1.1s0.4,1,1.1,1h5.4v9.8h-6.6c-4.5,0.5-8.1,4.5-8.1,9.1
			c0,5,4.2,9.2,9.3,9.2h5.4v9.8H354.3z"/>
		<path class="st0" d="M397.9,54.7h-12.5l-3.9-4.9c-1.2,0.8-2.5,1.6-3.9,2.1l-3.8-9c6-2.5,8.9-8,8.9-13.5c0-5.8-3.3-11.6-9.8-13.9
			v39.2H363V4.8h4.9c15.1,0,24.5,12.4,24.5,24.7c0,4.5-1.3,9.2-4.1,13.3L397.9,54.7z"/>
	</g>
	<polygon class="st1" points="417.5,75.8 18.6,75.5 7,64.7 405.9,65 	"/>
</g>
</svg>
